<?xml version="1.0" encoding="UTF-8" standalone="no"?>
<!DOCTYPE svg PUBLIC "-//W3C//DTD SVG 1.1//EN" "http://www.w3.org/Graphics/SVG/1.1/DTD/svg11.dtd">
<svg version="1.1" xmlns="http://www.w3.org/2000/svg" xmlns:xlink="http://www.w3.org/1999/xlink" preserveAspectRatio="xMidYMid meet" viewBox="0 0 640 640" width="640" height="640"><defs><path d="M320.06 277.24C254.59 277.24 201.44 224.09 201.44 158.62C201.44 93.15 254.59 40 320.06 40C385.53 40 438.68 93.15 438.68 158.62C438.68 224.09 385.53 277.24 320.06 277.24Z" id="g4hQnknUrE"></path><path d="M432.26 394.16L432.26 395.05L432.26 395.05L432.26 394.16L432.26 394.16Z" id="b1A9XfJRJZ"></path><path d="M430.71 119.46C430.62 119.15 430.36 208.08 320.8 209.17C221.51 210.15 207.43 122.45 207.43 122.47C190.33 236.68 256.86 271.4 324.91 269.96C411.78 268.11 454.66 204.98 430.71 119.46Z" id="g2zzNJcPRW"></path><path d="M427.46 210.53C427.59 210.24 377.26 303.67 286.27 266.02C178.58 221.47 208.99 116.83 208.98 116.84C183.8 176.85 213.74 248.12 273.85 273.83C333.96 299.53 402.28 270.55 427.46 210.53Z" id="h10MtQIVmV"></path><path d="M425.57 106.64C425.42 106.35 466.27 205.27 379.56 251.96C292.86 298.65 215.56 218.04 215.57 218.06C246.52 275.3 320.81 296.68 378.53 265.98C436.25 235.28 456.52 163.89 425.57 106.64Z" id="b20T8VrtDR"></path><path d="M117.23 210.69L117.23 210.69L117.23 210.69L117.23 210.91L117.23 211.13L117.23 210.91L117.23 210.69Z" id="arsqLzKYP"></path><path d="M444.32 247.34C443.96 246.59 443.1 246.49 442.64 247.15C426.21 270.33 385.18 328.31 319.51 421.06C253.85 328.31 212.81 270.33 196.39 247.15C195.93 246.49 195.06 246.59 194.71 247.34C172.75 294.04 117.85 410.79 30 597.59C68.6 597.54 261.61 597.3 609.02 596.87C513.86 394.92 458.96 278.41 444.32 247.34Z" id="a4JxBRwQxo"></path><path d="M209.87 598.58L54.78 598.58L178.85 419L189.98 497.25L222.54 414.99L202.91 272.09L300.34 387L325.68 421.27L209.87 598.58Z" id="i5pEPOSvu0"></path><path d="M196.41 599.96L444.56 248.36L610 599.96L196.41 599.96Z" id="clQByLumh"></path><path d="M448.54 397.49L443.54 473.97L353.66 439.8L365.22 517.07L274.36 573.61L236.75 600L609.02 600L520.05 408.67L427.8 298.63L448.54 397.49Z" id="a7Xh5pkd3"></path><path d="M320 421.76L442.01 262.89L475.1 313.7L450.56 259.82L444.07 244.7L320 421.76Z" id="bFyag59oR"></path></defs><g><g><g><use xlink:href="#g4hQnknUrE" opacity="1" fill="#960617" fill-opacity="1"></use><g><use xlink:href="#g4hQnknUrE" opacity="1" fill-opacity="0" stroke="#000000" stroke-width="1" stroke-opacity="0"></use></g></g><g><use xlink:href="#b1A9XfJRJZ" opacity="1" fill="#5311ea" fill-opacity="1"></use><g><use xlink:href="#b1A9XfJRJZ" opacity="1" fill-opacity="0" stroke="#000000" stroke-width="1" stroke-opacity="0"></use></g></g><g><use xlink:href="#g2zzNJcPRW" opacity="1" fill="#000000" fill-opacity="1"></use><g><use xlink:href="#g2zzNJcPRW" opacity="1" fill-opacity="0" stroke="#000000" stroke-width="1" stroke-opacity="0"></use></g></g><g><use xlink:href="#h10MtQIVmV" opacity="1" fill="#350000" fill-opacity="1"></use><g><use xlink:href="#h10MtQIVmV" opacity="1" fill-opacity="0" stroke="#000000" stroke-width="1" stroke-opacity="0"></use></g></g><g><use xlink:href="#b20T8VrtDR" opacity="1" fill="#350000" fill-opacity="1"></use><g><use xlink:href="#b20T8VrtDR" opacity="1" fill-opacity="0" stroke="#000000" stroke-width="1" stroke-opacity="0"></use></g></g><g><use xlink:href="#arsqLzKYP" opacity="1" fill="#756363" fill-opacity="1"></use><g><use xlink:href="#arsqLzKYP" opacity="1" fill-opacity="0" stroke="#000000" stroke-width="1" stroke-opacity="0"></use></g></g><g><use xlink:href="#a4JxBRwQxo" opacity="1" fill="#e0e0e0" fill-opacity="1"></use><g><use xlink:href="#a4JxBRwQxo" opacity="1" fill-opacity="0" stroke="#000000" stroke-width="1" stroke-opacity="0"></use></g></g><g><use xlink:href="#i5pEPOSvu0" opacity="1" fill="#272727" fill-opacity="1"></use><g><use xlink:href="#i5pEPOSvu0" opacity="1" fill-opacity="0" stroke="#000000" stroke-width="1" stroke-opacity="0"></use></g></g><g><use xlink:href="#clQByLumh" opacity="1" fill="#272727" fill-opacity="1"></use><g><use xlink:href="#clQByLumh" opacity="1" fill-opacity="0" stroke="#000000" stroke-width="1" stroke-opacity="0"></use></g></g><g><use xlink:href="#a7Xh5pkd3" opacity="1" fill="#1e1e1e" fill-opacity="1"></use><g><use xlink:href="#a7Xh5pkd3" opacity="1" fill-opacity="0" stroke="#000000" stroke-width="1" stroke-opacity="0"></use></g></g><g><use xlink:href="#bFyag59oR" opacity="1" fill="#f0f0f0" fill-opacity="1"></use><g><use xlink:href="#bFyag59oR" opacity="1" fill-opacity="0" stroke="#000000" stroke-width="1" stroke-opacity="0"></use></g></g></g></g></svg>