<?xml version="1.0" encoding="UTF-8" standalone="no"?>
<!DOCTYPE svg PUBLIC "-//W3C//DTD SVG 1.1//EN" "http://www.w3.org/Graphics/SVG/1.1/DTD/svg11.dtd">
<svg version="1.1" xmlns="http://www.w3.org/2000/svg" xmlns:xlink="http://www.w3.org/1999/xlink" preserveAspectRatio="xMidYMid meet" viewBox="0 0 640 640" width="640" height="640"><defs><path d="M544.3 268.02C544.3 386.53 448.09 482.74 329.58 482.74C211.08 482.74 114.87 386.53 114.87 268.02C114.87 149.52 211.08 53.31 329.58 53.31C448.09 53.31 544.3 149.52 544.3 268.02Z" id="h6tgRd1lA"></path><path d="M432.26 394.16L432.26 394.16L432.26 395.05L432.26 395.05L432.26 394.16Z" id="annbbjj6g"></path><path d="" id="axAPibJL"></path><path d="" id="b1Bg5r2cuy"></path><path d="" id="b7hLP2sPGc"></path><path d="" id="e9cRsIuW2"></path><path d="" id="a4tNxndAJ3"></path><path d="" id="be8ZdHhNv"></path><path d="" id="bYpY1SmaD"></path><path d="M343.11 471.59C528 469.37 562.43 300.36 525.81 182.23C525.63 181.66 516.48 341.92 337.13 353.8C157.78 365.68 115.16 279.23 115.16 279.26C122.45 396.62 202.55 473.28 343.11 471.59Z" id="ad7TKlYrp"></path><path d="" id="b9eRfMFvl5"></path><path d="M245.15 476.9C353.95 523.43 477.62 470.96 523.21 362.33C523.43 361.79 432.34 530.91 267.62 462.76C72.69 382.12 127.74 192.71 127.72 192.73C82.14 301.36 136.34 430.36 245.15 476.9Z" id="a9lNY4qxI"></path><path d="M436.25 461.52C540.73 405.95 577.42 276.71 521.4 173.08C521.12 172.56 595.07 351.62 438.12 436.13C281.17 520.65 141.26 374.74 141.27 374.77C197.29 478.39 331.77 517.08 436.25 461.52Z" id="c3PnfrNFWJ"></path><path d="M577.43 586.18C502.23 454.77 455.23 372.65 436.43 339.79C436.12 339.26 435.39 339.19 434.99 339.66C420.93 356 385.8 396.87 329.58 462.25C273.37 396.87 238.23 356 224.18 339.66C223.78 339.19 223.04 339.26 222.74 339.79C203.94 372.71 156.94 455.01 81.73 586.69L577.43 586.18Z" id="f5L4z8MUsD"></path><path d="" id="d1mAYcNUEf"></path><path d="M578.27 586.66L224.19 586.66L436.64 338.81L578.27 586.66Z" id="av9cqEQUd"></path><path d="M422.29 374.25L440.04 443.94L435.76 497.85L358.82 473.76L368.71 528.23L290.93 568.09L258.73 586.69L577.43 586.69L501.26 451.82L422.29 374.25Z" id="b9sVu3Kky"></path><path d="M334.86 461.7L235.72 586.69L102.94 586.69L209.16 460.1L218.69 515.26L246.56 457.27L229.76 356.54L313.17 437.54L334.86 461.7Z" id="eEDwiJybk"></path><path d="M436.66 335.34L330.44 460.15L434.89 348.16L463.22 383.98L442.21 346L436.66 335.34Z" id="g49VFHj53"></path><path d="M117.23 210.91L117.23 210.69L117.23 210.69L117.23 210.69L117.23 210.91L117.23 211.13L117.23 210.91Z" id="c1EhaVzNqt"></path></defs><g><g><g><use xlink:href="#h6tgRd1lA" opacity="1" fill="#ff3838" fill-opacity="1"></use></g><g><use xlink:href="#annbbjj6g" opacity="1" fill="#5311ea" fill-opacity="1"></use></g><g><g><use xlink:href="#axAPibJL" opacity="1" fill-opacity="0" stroke="#000000" stroke-width="1" stroke-opacity="1"></use></g></g><g><g><use xlink:href="#b1Bg5r2cuy" opacity="1" fill-opacity="0" stroke="#000000" stroke-width="1" stroke-opacity="1"></use></g></g><g><g><use xlink:href="#b7hLP2sPGc" opacity="1" fill-opacity="0" stroke="#000000" stroke-width="1" stroke-opacity="1"></use></g></g><g><g><use xlink:href="#e9cRsIuW2" opacity="1" fill-opacity="0" stroke="#000000" stroke-width="1" stroke-opacity="1"></use></g></g><g><g><use xlink:href="#a4tNxndAJ3" opacity="1" fill-opacity="0" stroke="#000000" stroke-width="1" stroke-opacity="1"></use></g></g><g><g><use xlink:href="#be8ZdHhNv" opacity="1" fill-opacity="0" stroke="#000000" stroke-width="1" stroke-opacity="1"></use></g></g><g><g><use xlink:href="#bYpY1SmaD" opacity="1" fill-opacity="0" stroke="#000000" stroke-width="1" stroke-opacity="1"></use></g></g><g><use xlink:href="#ad7TKlYrp" opacity="1" fill="#9c0000" fill-opacity="1"></use></g><g><g><use xlink:href="#b9eRfMFvl5" opacity="1" fill-opacity="0" stroke="#000000" stroke-width="1" stroke-opacity="1"></use></g></g><g><use xlink:href="#a9lNY4qxI" opacity="1" fill="#ffffff" fill-opacity="1"></use></g><g><use xlink:href="#c3PnfrNFWJ" opacity="1" fill="#ffffff" fill-opacity="1"></use></g><g><use xlink:href="#f5L4z8MUsD" opacity="1" fill="#818181" fill-opacity="1"></use></g><g><g><use xlink:href="#d1mAYcNUEf" opacity="1" fill-opacity="0" stroke="#000000" stroke-width="2" stroke-opacity="1"></use></g></g><g><use xlink:href="#av9cqEQUd" opacity="1" fill="#272727" fill-opacity="1"></use></g><g><use xlink:href="#b9sVu3Kky" opacity="1" fill="#595959" fill-opacity="1"></use></g><g><use xlink:href="#eEDwiJybk" opacity="1" fill="#272727" fill-opacity="1"></use></g><g><use xlink:href="#g49VFHj53" opacity="1" fill="#878787" fill-opacity="1"></use></g><g><use xlink:href="#c1EhaVzNqt" opacity="1" fill="#756363" fill-opacity="1"></use></g></g></g></svg>