<?xml version="1.0" encoding="UTF-8" standalone="no"?>
<!DOCTYPE svg PUBLIC "-//W3C//DTD SVG 1.1//EN" "http://www.w3.org/Graphics/SVG/1.1/DTD/svg11.dtd">
<svg version="1.1" xmlns="http://www.w3.org/2000/svg" xmlns:xlink="http://www.w3.org/1999/xlink" preserveAspectRatio="xMidYMid meet" viewBox="0 0 640 640" width="640" height="640"><defs><path d="M562.56 260C562.56 393.88 453.88 502.56 320 502.56C186.12 502.56 77.44 393.88 77.44 260C77.44 126.12 186.12 17.44 320 17.44C453.88 17.44 562.56 126.12 562.56 260Z" id="e105VM8HBA"></path><path d="M436 402.5L436 402.5L436 403.5L436 403.5L436 402.5Z" id="f107LqndWI"></path><path d="" id="boePr4elx"></path><path d="" id="aCMJooPWX"></path><path d="" id="b4lnGVBUm3"></path><path d="" id="e2ch8QqOli"></path><path d="" id="b2HwVdo0AM"></path><path d="" id="a2koU99XBA"></path><path d="" id="b2ztTCFCzV"></path><path d="M335.28 486.9C544.15 484.39 583.04 293.45 541.67 160C541.48 159.37 531.14 340.41 328.53 353.83C125.91 367.26 77.76 269.58 77.76 269.62C86 402.2 176.49 488.81 335.28 486.9Z" id="a1mZhoBfqe"></path><path d="" id="b2UaKkCkLu"></path><path d="M224.61 495.97C347.52 548.54 487.24 489.25 538.74 366.54C539 365.93 436.09 556.98 250 480C29.78 388.9 91.97 174.91 91.96 174.94C40.46 297.66 101.69 443.4 224.61 495.97Z" id="c16TSsRU1i"></path><path d="M440.5 478.59C558.53 415.82 599.98 269.81 536.69 152.74C536.38 152.16 619.92 354.44 442.61 449.91C265.3 545.39 107.25 380.56 107.26 380.59C170.55 497.66 322.47 541.36 440.5 478.59Z" id="afZSo3bRu"></path><path d="M600 619.42C515.04 470.97 461.94 378.19 440.7 341.08C440.36 340.48 439.53 340.4 439.08 340.92C423.2 359.39 383.51 405.56 320 479.42C256.49 405.56 216.8 359.39 200.92 340.92C200.47 340.4 199.64 340.48 199.3 341.08C178.06 378.27 124.96 471.24 40 620L600 619.42Z" id="a2JicxU0L3"></path><path d="" id="c24JOLIfFw"></path><path d="M600.94 619.96L200.94 619.96L440.94 339.96L600.94 619.96Z" id="g1Ijrw3lgV"></path><path d="M424.73 380L444.78 458.73L439.95 519.64L353.03 492.43L364.21 553.95L276.34 598.99L239.95 620L600 620L513.95 467.64L424.73 380Z" id="a2X1NzjGqt"></path><path d="M325.96 478.8L213.96 620L63.96 620L183.96 476.99L194.72 539.3L226.2 473.8L207.23 360L301.46 451.5L325.96 478.8Z" id="a2jmYXxS64"></path><path d="M440.97 336.05L320.97 477.05L438.97 350.53L470.97 391L447.24 348.09L440.97 336.05Z" id="d2NEKvnUzf"></path><path d="M80.1 195.48L80.1 195.23L80.1 195.23L80.1 195.23L80.1 195.48L80.1 195.73L80.1 195.48Z" id="bexsdMbtg"></path></defs><g><g><g><use xlink:href="#e105VM8HBA" opacity="1" fill="#333333" fill-opacity="1"></use></g><g><use xlink:href="#f107LqndWI" opacity="1" fill="#5311ea" fill-opacity="1"></use></g><g><g><use xlink:href="#boePr4elx" opacity="1" fill-opacity="0" stroke="#000000" stroke-width="1" stroke-opacity="1"></use></g></g><g><g><use xlink:href="#aCMJooPWX" opacity="1" fill-opacity="0" stroke="#000000" stroke-width="1" stroke-opacity="1"></use></g></g><g><g><use xlink:href="#b4lnGVBUm3" opacity="1" fill-opacity="0" stroke="#000000" stroke-width="1" stroke-opacity="1"></use></g></g><g><g><use xlink:href="#e2ch8QqOli" opacity="1" fill-opacity="0" stroke="#000000" stroke-width="1" stroke-opacity="1"></use></g></g><g><g><use xlink:href="#b2HwVdo0AM" opacity="1" fill-opacity="0" stroke="#000000" stroke-width="1" stroke-opacity="1"></use></g></g><g><g><use xlink:href="#a2koU99XBA" opacity="1" fill-opacity="0" stroke="#000000" stroke-width="1" stroke-opacity="1"></use></g></g><g><g><use xlink:href="#b2ztTCFCzV" opacity="1" fill-opacity="0" stroke="#000000" stroke-width="1" stroke-opacity="1"></use></g></g><g><use xlink:href="#a1mZhoBfqe" opacity="1" fill="#000000" fill-opacity="1"></use></g><g><g><use xlink:href="#b2UaKkCkLu" opacity="1" fill-opacity="0" stroke="#000000" stroke-width="1" stroke-opacity="1"></use></g></g><g><use xlink:href="#c16TSsRU1i" opacity="1" fill="#ffffff" fill-opacity="1"></use></g><g><use xlink:href="#afZSo3bRu" opacity="1" fill="#ffffff" fill-opacity="1"></use></g><g><use xlink:href="#a2JicxU0L3" opacity="1" fill="#818181" fill-opacity="1"></use></g><g><g><use xlink:href="#c24JOLIfFw" opacity="1" fill-opacity="0" stroke="#000000" stroke-width="2" stroke-opacity="1"></use></g></g><g><use xlink:href="#g1Ijrw3lgV" opacity="1" fill="#272727" fill-opacity="1"></use></g><g><use xlink:href="#a2X1NzjGqt" opacity="1" fill="#595959" fill-opacity="1"></use></g><g><use xlink:href="#a2jmYXxS64" opacity="1" fill="#272727" fill-opacity="1"></use></g><g><use xlink:href="#d2NEKvnUzf" opacity="1" fill="#878787" fill-opacity="1"></use></g><g><use xlink:href="#bexsdMbtg" opacity="1" fill="#756363" fill-opacity="1"></use></g></g></g></svg>